<?xml version="1.0" encoding="UTF-8"?>
<svg version="1.1" xmlns="http://www.w3.org/2000/svg" width="2041" height="1819">
<path d="M0 0 C6.10998996 0.55277902 12.04386202 1.75466464 18.03881836 3.02758789 C19.02177604 3.23358014 20.00473372 3.43957239 21.01747799 3.65180683 C24.29226902 4.33894769 27.56605139 5.03077425 30.83984375 5.72265625 C33.18322392 6.21547926 35.52665997 6.70803665 37.87014771 7.2003479 C43.56572214 8.3977073 49.26062668 9.59821311 54.95522046 10.80022717 C59.63855757 11.78869438 64.32221362 12.77563787 69.006073 13.7616272 C110.16195253 22.42551245 151.30586265 31.14550403 192.44354534 39.89538479 C219.40805329 45.63060795 246.37512599 51.35341551 273.34765625 57.05078125 C274.06162811 57.20159244 274.77559997 57.35240362 275.51120734 57.50778484 C286.5489942 59.8392054 297.58698409 62.16966416 308.625 64.5 C320.55736646 67.01917713 332.48968563 69.53857797 344.421875 72.05859375 C345.17268538 72.21715882 345.92349576 72.3757239 346.69705796 72.53909397 C372.38873729 77.96510857 398.07785899 83.40314696 423.765625 88.84765625 C424.6314097 89.03115552 425.4971944 89.2146548 426.38921499 89.40371466 C443.33106116 92.99449834 460.27270595 96.58623141 477.21403503 100.17945391 C483.47705366 101.50782128 489.74012598 102.83593525 496.00323296 104.16388601 C499.60864662 104.92835661 503.21402575 105.69298918 506.81931305 106.4580555 C507.49519942 106.60146801 508.1710858 106.74488052 508.86745358 106.89263886 C510.20285876 107.17601309 511.53825031 107.45945157 512.87362766 107.74295694 C516.04264112 108.4154599 519.21214881 109.08548726 522.38239288 109.7521677 C528.24010893 110.98426404 534.09115213 112.23752676 539.93267822 113.54440308 C541.02631243 113.78448813 542.11994663 114.02457319 543.24672127 114.27193356 C545.2707876 114.7167023 547.29274884 115.17122598 549.31185722 115.63798618 C557.79577182 117.48138586 564.3954588 116.36128809 572.74169922 113.98828125 C573.47805981 113.78391512 574.21442039 113.57954899 574.97309494 113.36898994 C577.41849181 112.68886173 579.86154507 112.00067858 582.3046875 111.3125 C584.06401609 110.8215021 585.82349065 110.331027 587.58309937 109.84103394 C591.36431198 108.78694256 595.14451047 107.72931462 598.9239502 106.66888428 C604.94482173 104.97958649 610.96783215 103.29800841 616.99121094 101.61767578 C624.34905139 99.56456322 631.70638808 97.50966389 639.06309509 95.45249367 C652.40035326 91.72324239 665.74185106 88.00942603 679.0859375 84.3046875 C680.05686655 84.03510538 681.0277956 83.76552326 682.02814674 83.48777199 C687.81755219 81.88040214 693.60708949 80.27350768 699.39668655 78.66682816 C707.79195756 76.33704137 716.18709975 74.00679108 724.58203125 71.67578125 C725.46698965 71.43008078 726.35194805 71.1843803 727.26372337 70.93123436 C738.26455425 67.87658592 749.26228329 64.8111587 760.2557106 61.72997284 C764.66837717 60.49371831 769.08190044 59.26052436 773.49523926 58.02667236 C776.80352348 57.10002663 780.11028492 56.16809394 783.41699219 55.23583984 C785.37036579 54.68950356 787.32381114 54.14342371 789.27734375 53.59765625 C790.11561203 53.35935593 790.95388031 53.1210556 791.81755066 52.87553406 C801.96632009 50.05541187 811.71661531 48.63046148 822.25 48.6875 C823.34755615 48.69313965 824.4451123 48.6987793 825.57592773 48.70458984 C852.44790509 49.10486559 875.96231835 60.42191983 895.25 78.8125 C906.1513859 90.13792685 913.97079192 103.89550443 918.62109375 118.87109375 C918.99453415 120.06485374 918.99453415 120.06485374 919.3755188 121.2827301 C923.22381325 133.77310268 926.66262129 146.38795062 930.14306641 158.98461914 C931.17948978 162.73510142 932.22384114 166.48332747 933.27014732 170.23106289 C934.08183161 173.14254203 934.88878337 176.05531677 935.69435501 178.96849251 C936.0778933 180.35280971 936.46304227 181.73668174 936.84986496 183.12008476 C937.38577831 185.03889666 937.91449296 186.95971473 938.44287109 188.88061523 C938.89537735 190.51340675 938.89537735 190.51340675 939.35702515 192.17918396 C940 195 940 195 940 199 C941.25560226 199.11855347 942.51120453 199.23710693 943.80485535 199.35925293 C949.32466359 199.97626845 954.69597665 201.08553911 960.12231445 202.25195312 C961.21282104 202.48269279 962.30332764 202.71343246 963.42687988 202.95116425 C967.07322959 203.72376363 970.71823283 204.50253629 974.36328125 205.28125 C976.99106241 205.83925974 979.61891704 206.39691183 982.24687195 206.95410156 C987.93168492 208.16010942 993.61583649 209.36919335 999.29956055 210.58032227 C1008.45591497 212.53135122 1017.61360413 214.47606944 1026.77148438 216.41992188 C1029.9437646 217.09334379 1033.11603462 217.76681374 1036.28829956 218.44030762 C1037.08261159 218.6089427 1037.87692362 218.77757779 1038.69530571 218.95132303 C1044.42902995 220.16870402 1050.16256788 221.38696003 1055.89602661 222.60559082 C1078.92156652 227.49941355 1101.94988654 232.37996321 1124.98046875 237.25 C1126.18477523 237.50466836 1126.18477523 237.50466836 1127.41341114 237.76448154 C1134.72594216 239.31080766 1142.03850826 240.85696778 1149.35112 242.40291214 C1160.77639502 244.81830732 1172.20149824 247.2345136 1183.62646484 249.65136719 C1184.43614244 249.82264743 1185.24582003 249.99392768 1186.0800333 250.17039824 C1190.16438431 251.03441306 1194.24873161 251.89844546 1198.33307648 252.76248932 C1203.21087515 253.79438756 1208.08868268 254.82624393 1212.9664917 255.85809326 C1221.84048002 257.73529723 1230.71445796 259.6125503 1239.58842945 261.48983383 C1241.1969161 261.83010813 1242.80540291 262.17038167 1244.41388988 262.51065445 C1264.01562687 266.65737129 1283.61728708 270.80445054 1303.21870995 274.95265198 C1310.40495627 276.4734551 1317.59122781 277.99413875 1324.77758789 279.5144043 C1338.98326803 282.5196707 1353.18854024 285.52684917 1367.39273643 288.53912354 C1374.1250801 289.96682861 1380.857657 291.39341561 1387.59063721 292.81811523 C1394.08186897 294.19169976 1400.57265834 295.56735454 1407.06295663 296.94534326 C1410.49665472 297.67430898 1413.9305405 298.40235987 1417.36492729 299.12807465 C1421.13072315 299.92385858 1424.89560059 300.72393033 1428.66040039 301.52441406 C1429.78552851 301.76149834 1430.91065662 301.99858261 1432.06987953 302.24285126 C1433.09164976 302.46082619 1434.11341999 302.67880112 1435.16615295 302.90338135 C1436.05666886 303.09213963 1436.94718477 303.2808979 1437.86468601 303.47537613 C1440 304 1440 304 1442 305 C1441.340295 312.09122396 1440.08353723 318.9226457 1438.59277344 325.8828125 C1438.34595133 327.05214766 1438.09912922 328.22148281 1437.84482765 329.42625237 C1437.1639546 332.64769947 1436.4792327 335.86829974 1435.79284239 339.08857489 C1435.05400821 342.5596099 1434.32023077 346.03171406 1433.58584595 349.50369263 C1432.31447888 355.51105209 1431.03999041 361.51774234 1429.7633667 367.52398682 C1427.89732175 376.30344672 1426.03617395 385.08393931 1424.1762588 393.8646996 C1421.3575318 407.17174744 1418.53609339 420.47821818 1415.71251607 433.78423762 C1411.64752635 452.94058072 1407.59099316 472.09870329 1403.5390625 491.2578125 C1403.38981009 491.96353504 1403.24055767 492.66925757 1403.08678246 493.39636564 C1402.78558174 494.8205603 1402.48438119 496.24475499 1402.18318081 497.66894972 C1401.43432387 501.20980722 1400.68543343 504.75065763 1399.93652344 508.29150391 C1399.78909698 508.98855179 1399.64167053 509.68559967 1399.48977661 510.40377021 C1397.26688684 520.91343722 1395.04104658 531.42247641 1392.81347656 541.93115234 C1391.77176745 546.845846 1390.73011776 551.76055225 1389.68852043 556.6752696 C1389.39132045 558.07758007 1389.09411105 559.47988854 1388.79689217 560.882195 C1384.88313054 579.34819517 1380.98301645 597.81700585 1377.10055733 616.28961372 C1374.50635296 628.63274413 1371.90693591 640.97476886 1369.30389214 653.31603813 C1367.60885438 661.35386521 1365.9191948 669.39278482 1364.23668611 677.43324399 C1362.96217946 683.52136165 1361.67850531 689.60751367 1360.39153671 695.69300842 C1359.86849544 698.17356482 1359.34846231 700.65475782 1358.83176041 703.13664246 C1352.23328843 734.8122334 1342.18306788 764.60363064 1313.77734375 783.31640625 C1285.54989133 800.42756236 1257.02398852 803.50609173 1224.9375 796.25 C1222.9685566 795.82440294 1220.99904236 795.40144066 1219.02905273 794.98071289 C1214.32136271 793.97254563 1209.61679349 792.95089399 1204.91308594 791.92431641 C1194.95501549 789.75778344 1184.97849124 787.6793045 1175.00279808 785.59573746 C1169.57721074 784.46251414 1164.1520246 783.32737297 1158.72680664 782.19238281 C1157.64223584 781.96549082 1156.55766504 781.73859882 1155.44022846 781.50483131 C1144.69857654 779.25733866 1133.95716226 777.00877402 1123.218853 774.74535561 C1121.25040896 774.33090481 1119.2817543 773.91745304 1117.31288528 773.50502586 C1114.59809311 772.93619487 1111.88404574 772.36393749 1109.17016602 771.79077148 C1108.36591659 771.62304356 1107.56166716 771.45531563 1106.73304653 771.28250504 C1101.22835422 770.11417711 1101.22835422 770.11417711 1099 769 C1099.24830566 769.85335937 1099.49661133 770.70671875 1099.75244141 771.5859375 C1107.29207602 797.57774763 1114.52446523 823.65237816 1121.69786835 849.74713135 C1122.43258857 852.41963496 1123.16771282 855.0920272 1123.90289307 857.7644043 C1125.08641861 862.06734382 1126.26852896 866.37066988 1127.44952965 870.67430305 C1127.88691497 872.26788187 1128.32457522 873.86138527 1128.76255226 875.45480156 C1130.18560104 880.63369594 1131.59742421 885.81552486 1133 891 C1133.22463551 891.82759449 1133.44927101 892.65518898 1133.68071365 893.50786209 C1134.3726406 896.06398385 1135.05834424 898.62170183 1135.74243164 901.17993164 C1135.95371673 901.95848479 1136.16500181 902.73703794 1136.38268948 903.53918362 C1143.36936186 929.84646451 1138.3109695 957.06406179 1125.109375 980.51953125 C1122.22389612 985.42244523 1118.74115417 989.72764747 1115 994 C1114.43667969 994.69480469 1113.87335938 995.38960937 1113.29296875 996.10546875 C1096.21587109 1016.78195467 1071.20702952 1023.94856307 1046.4375 1030.75 C1043.97505915 1031.43311279 1041.51282779 1032.11698107 1039.05078125 1032.80151367 C1032.73895957 1034.55474662 1026.4244818 1036.29824164 1020.10923576 1038.03909397 C1011.58529812 1040.38918014 1003.06385836 1042.74827871 994.54232979 1045.10708237 C981.81536999 1048.6298512 969.08785486 1052.15060303 956.35913086 1055.66699219 C927.72975045 1063.57675935 899.11189015 1071.52721709 870.5 1079.5 C837.702652 1088.63868739 804.89525178 1097.74013546 772.07806396 1106.80731201 C741.20889947 1115.33648299 710.3506325 1123.90404561 679.5 1132.5 C646.70256972 1141.63839335 613.89525249 1150.74013526 581.07806396 1159.80731201 C550.20889947 1168.33648299 519.3506325 1176.90404561 488.5 1185.5 C455.70256972 1194.63839335 422.89525249 1203.74013526 390.07806396 1212.80731201 C359.20889947 1221.33648299 328.3506325 1229.90404561 297.5 1238.5 C265.67596828 1247.36717396 233.84318297 1256.20184818 202 1265 C169.92789846 1273.86150654 137.86582162 1282.75829989 105.8125 1291.6875 C75.90130612 1300.01984167 45.98646207 1308.3386215 16.0625 1316.625 C14.37482703 1317.09234605 12.6871541 1317.55969224 10.9994812 1318.02703857 C9.74818405 1318.37354462 9.74818405 1318.37354462 8.47160816 1318.72705078 C4.24537476 1319.89738778 0.01916261 1321.06780149 -4.20703125 1322.23828125 C-5.04578356 1322.47057686 -5.88453587 1322.70287247 -6.74870491 1322.94220734 C-25.31554144 1328.08470545 -43.87844061 1333.24135487 -62.44086075 1338.39976788 C-69.12185519 1340.25626233 -75.80326428 1342.11125887 -82.48486328 1343.96557617 C-86.19436167 1344.99518726 -89.90383153 1346.02490108 -93.61328125 1347.0546875 C-94.51915482 1347.30615602 -95.42502838 1347.55762455 -96.35835266 1347.81671333 C-107.55225973 1350.92463186 -118.74278372 1354.04429963 -129.92895508 1357.1799469 C-135.26768954 1358.67638978 -140.60773932 1360.16811083 -145.94817734 1361.65846157 C-150.09367857 1362.81579799 -154.23733323 1363.97944079 -158.37957668 1365.14838028 C-161.47663788 1366.02028083 -164.57642155 1366.88240578 -167.67578125 1367.74609375 C-168.74442917 1368.05004059 -169.81307709 1368.35398743 -170.91410828 1368.66714478 C-199.00415048 1376.44248208 -227.11617081 1374.18297583 -252.76831055 1359.92602539 C-260.82696876 1355.25034289 -267.396858 1349.52298246 -274 1343 C-274.65355469 1342.41863281 -275.30710937 1341.83726563 -275.98046875 1341.23828125 C-292.18994677 1326.51250831 -298.30840651 1303.7592034 -303.8125 1283.4375 C-304.49049891 1280.97490718 -305.16983345 1278.51268179 -305.8503418 1276.05078125 C-307.38437578 1270.49539016 -308.90926351 1264.93754802 -310.4296875 1259.37841797 C-313.22431588 1249.16457891 -316.04890491 1238.9590755 -318.875 1228.75390625 C-319.92931767 1224.94605519 -320.98357714 1221.13818801 -322.0378418 1217.33032227 C-322.30493548 1216.36570163 -322.57202917 1215.40108099 -322.84721661 1214.40722942 C-324.78947614 1207.39181834 -326.72897002 1200.37564618 -328.66723633 1193.35913086 C-336.57659322 1164.72965913 -344.52722286 1136.11186945 -352.5 1107.5 C-361.63868739 1074.702652 -370.74013546 1041.89525178 -379.80731201 1009.07806396 C-388.33648299 978.20889947 -396.90404561 947.3506325 -405.5 916.5 C-414.36717396 884.67596828 -423.20184818 852.84318297 -432 821 C-440.86150668 788.92789798 -449.75849559 756.86587641 -458.6875 724.8125 C-469.42722114 686.25735108 -480.13987269 647.6948272 -490.81414795 609.12150574 C-493.45965384 599.56184917 -496.10767876 590.00289584 -498.75839996 580.44468403 C-500.73773749 573.30713893 -502.71546306 566.16914849 -504.69199371 559.03082561 C-505.85772334 554.82096703 -507.02418505 550.61131478 -508.19256592 546.40219116 C-509.27102031 542.51691395 -510.34731591 538.63104518 -511.42196846 534.74471474 C-511.81356422 533.33002152 -512.2059349 531.91554253 -512.59916496 530.50130272 C-521.27619284 499.28739984 -521.21196683 470.60508531 -505.10449219 441.85009766 C-502.15886165 436.91597117 -498.63587291 432.44232593 -495 428 C-494.49984375 427.34773438 -493.9996875 426.69546875 -493.484375 426.0234375 C-478.16543883 406.74270749 -454.39217124 398.59647299 -431.578125 392.38671875 C-429.67155698 391.85982165 -427.7652372 391.33202561 -425.85914612 390.80340576 C-420.72981945 389.38339779 -415.59729154 387.97530387 -410.46411514 386.56928635 C-405.01790488 385.07512897 -399.57487715 383.56946848 -394.1315918 382.06469727 C-386.26225821 379.89024014 -378.39202558 377.7190959 -370.52053738 375.55245113 C-357.3012367 371.91374398 -344.08786848 368.25417404 -330.87890625 364.578125 C-329.96027361 364.32250731 -329.04164097 364.06688961 -328.09517097 363.80352592 C-324.41329017 362.77898768 -320.73143327 361.75436364 -317.04962635 360.7295599 C-306.86498523 357.89491334 -296.67882921 355.06572913 -286.4921875 352.23828125 C-285.56977705 351.98225191 -284.6473666 351.72622257 -283.69700432 351.46243477 C-260.64792801 345.06558157 -237.59159122 338.69498963 -214.53562927 332.32300949 C-181.70198237 323.24859035 -148.87896147 314.13637042 -116.0625 305 C-114.99129284 304.70179604 -113.92008568 304.40359207 -112.81641769 304.09635162 C-106.68371594 302.38911033 -100.55111504 300.68150756 -94.4186821 298.97330093 C-92.56039402 298.45567203 -90.70209008 297.93810011 -88.84376907 297.42058945 C-86.29820225 296.71162966 -83.75272416 296.00235225 -81.20727539 295.29296875 C-80.10565897 294.98622317 -80.10565897 294.98622317 -78.98178768 294.67328072 C-78.29207158 294.48098822 -77.60235548 294.28869572 -76.89173889 294.09057617 C-76.23820498 293.90941254 -75.58467106 293.7282489 -74.91133308 293.54159546 C-73.01301918 293.00368912 -71.12488416 292.43027757 -69.23704529 291.85668945 C-66 291 -66 291 -62 291 C-61.88333135 290.37785394 -61.76666269 289.75570787 -61.64645863 289.1147089 C-58.2778585 271.21916381 -54.6111688 253.39398899 -50.81962252 235.58420396 C-50.01762504 231.81423265 -49.21858728 228.04363384 -48.41915894 224.27311707 C-46.87648558 216.99926059 -45.33125705 209.72594948 -43.78499985 202.4528541 C-41.9976708 194.04553352 -40.2125451 185.63774562 -38.42757833 177.22992325 C-36.07119164 166.13059126 -33.71436732 155.0313525 -31.35603333 143.93243408 C-27.19472306 124.34726268 -23.0420852 104.76028688 -18.90127176 85.17077166 C-17.89473421 80.40918095 -16.88752322 75.64773316 -15.879776 70.88639832 C-15.74169551 70.23400309 -15.60361501 69.58160786 -15.46135026 68.90944308 C-14.78100443 65.69512154 -14.10056252 62.48082035 -13.42006016 59.26653194 C-12.11369971 53.09529695 -10.80862739 46.92379531 -9.50643921 40.75167847 C-8.30292378 35.04749452 -7.09599311 29.34404453 -5.88629532 23.64116859 C-5.44832774 21.57331507 -5.01167228 19.50518315 -4.5764122 17.43675804 C-3.99065151 14.65387582 -3.40036078 11.87199417 -2.80883789 9.09033203 C-2.63821429 8.27416884 -2.46759069 7.45800566 -2.29179668 6.61711025 C-1.11413051 1.11413051 -1.11413051 1.11413051 0 0 Z M800.27734375 135.37109375 C798.61422216 135.84133906 796.95072293 136.31025047 795.28688049 136.77793884 C791.71247412 137.78549309 788.1407241 138.80181044 784.57080078 139.82513428 C778.83254298 141.4697685 773.08868222 143.09418965 767.34375 144.71533203 C761.3118765 146.41837384 755.28035486 148.12260649 749.2507019 149.83349609 C730.2016047 155.23820907 711.12697165 160.54883955 692.04541016 165.83761597 C686.44251874 167.39062288 680.84035354 168.9462386 675.23828125 170.50219727 C647.3312077 178.25225188 619.415739 185.97185866 591.49902344 193.68709564 C559.47402113 202.53778402 527.46095672 211.43066391 495.45460129 220.34853363 C464.64564385 228.93263707 433.82739831 237.482365 403 246 C371.07417637 254.82141161 339.15762456 263.675482 307.25 272.5625 C305.21340978 273.12971115 303.1768192 273.69692103 301.14022827 274.26412964 C297.08081045 275.39473134 293.02139812 276.52535278 288.96199036 277.6559906 C287.96135874 277.93468931 286.96072712 278.21338802 285.92977333 278.50053215 C283.91259821 279.06236787 281.89542571 279.624213 279.87825584 280.18606758 C257.85849104 286.31929694 235.83634257 292.44393031 213.8125 298.5625 C212.89249332 298.81810574 211.97248665 299.07371147 211.02460098 299.33706284 C180.52198123 307.81135984 150.01086636 316.25472902 119.49679947 324.68770218 C88.48825831 333.25744254 57.49053778 341.86539113 26.5 350.5 C-5.47020776 359.40756532 -37.44865442 368.28459592 -69.4375 377.125 C-100.04714416 385.58451757 -130.65227532 394.0599638 -161.25 402.5625 C-162.63863565 402.94835581 -162.63863565 402.94835581 -164.05532455 403.34200668 C-178.03713685 407.22709139 -192.01861278 411.11338588 -206 415 C-219.98556152 418.88777451 -233.9712451 422.77510916 -247.95721054 426.66143036 C-250.73855072 427.43431844 -253.51986609 428.20729575 -256.30117798 428.98028564 C-277.97119095 435.00257655 -299.6449637 441.01105982 -321.32421875 447 C-323.45218146 447.58796801 -325.58014168 448.17594508 -327.70809937 448.76393127 C-344.54453341 453.41576721 -344.54453341 453.41576721 -352.33898926 455.56515503 C-362.34493582 458.32449376 -372.34935096 461.08910894 -382.34855843 463.87278461 C-386.6242302 465.06295571 -390.90088009 466.24931668 -395.17999268 467.42706299 C-399.3039701 468.56236523 -403.42492492 469.70804703 -407.54384041 470.86157417 C-409.05706978 471.28348106 -410.57132369 471.70173368 -412.08666801 472.11598015 C-414.15715946 472.68262444 -416.22346975 473.26259777 -418.28930664 473.84594727 C-419.44693008 474.16717056 -420.60455353 474.48839386 -421.79725647 474.8193512 C-428.5088552 477.2934928 -432.67676675 481.12794458 -436.3125 487.1875 C-438.04523334 494.27595457 -435.69390671 502.03974827 -433.73779297 508.90722656 C-433.3929184 510.15600523 -433.3929184 510.15600523 -433.04107666 511.43001175 C-432.28254134 514.16910715 -431.51242282 516.90479888 -430.7421875 519.640625 C-430.20029337 521.5887061 -429.65914127 523.53699373 -429.11868286 525.48547363 C-427.67732324 530.67411239 -426.22600888 535.85991519 -424.77246094 541.04515076 C-423.27656768 546.38701263 -421.78899487 551.73118986 -420.30078125 557.07519531 C-418.52588728 563.44654363 -416.75001456 569.81761253 -414.96966553 576.18743896 C-411.80972948 587.49410174 -408.66617434 598.80486899 -405.56384659 610.12747955 C-404.67972496 613.35332463 -403.7930138 616.57845699 -402.90673828 619.80371094 C-401.96062492 623.2469003 -401.01620309 626.69049319 -400.07806396 630.13586426 C-399.24552062 633.19121528 -398.40505997 636.24427399 -397.5625 639.296875 C-397.20963425 640.605495 -397.20963425 640.605495 -396.84963989 641.94055176 C-395.69245207 646.38441222 -395.69245207 646.38441222 -393 650 C-379.35370078 646.23085209 -365.70791051 642.45986402 -352.0625 638.6875 C-350.49159103 638.25321182 -350.49159103 638.25321182 -348.88894653 637.81015015 C-316.08327509 628.74024538 -283.28739716 619.63573055 -250.5 610.5 C-217.70258516 601.36155127 -184.89525238 592.25986471 -152.07806396 583.19268799 C-121.20889947 574.66351701 -90.3506325 566.09595439 -59.5 557.5 C-26.70256972 548.36160665 6.10474751 539.25986474 38.92193604 530.19268799 C69.79110053 521.66351701 100.6493675 513.09595439 131.5 504.5 C164.29743028 495.36160665 197.10474751 486.25986474 229.92193604 477.19268799 C260.79110053 468.66351701 291.6493675 460.09595439 322.5 451.5 C355.29743028 442.36160665 388.10474751 433.25986474 420.92193604 424.19268799 C451.79110053 415.66351701 482.6493675 407.09595439 513.5 398.5 C546.29743028 389.36160665 579.10474751 380.25986474 611.92193604 371.19268799 C644.80261118 362.10773526 677.67026775 352.97681324 710.53082275 343.81936646 C733.2725047 337.48201191 756.01787105 331.15843299 778.7734375 324.87109375 C779.83394066 324.57803471 780.89444382 324.28497566 781.98708344 323.98303604 C792.19281551 321.16287834 802.39892983 318.34411823 812.60635757 315.53010368 C835.77326372 309.14219998 858.90785529 302.6533972 882 296 C880.7904504 289.59282202 879.36535532 283.3075209 877.60839844 277.02929688 C877.37674673 276.1904319 877.14509502 275.35156693 876.90642357 274.4872818 C876.14412082 271.73015584 875.37677644 268.97446074 874.609375 266.21875 C874.06666259 264.25968682 873.52425996 262.3005378 872.98214722 260.34130859 C871.53966825 255.1319159 870.09268678 249.92378533 868.64429474 244.71603394 C867.15381473 239.35601773 865.66575302 233.99533002 864.17724609 228.63476562 C862.41102526 222.2748744 860.64418756 215.91515635 858.87521362 209.55603027 C856.01529103 199.27312925 853.16505691 188.98782118 850.34924316 178.69274902 C849.06291974 173.99136242 847.76933102 169.29199634 846.47424316 164.59301758 C845.91282904 162.54829844 845.35506522 160.50257318 844.80114746 158.45581055 C844.05684174 155.70733952 843.29968903 152.96274068 842.5390625 150.21875 C842.33602509 149.45449707 842.13298767 148.69024414 841.92379761 147.90283203 C840.2565453 141.97376348 837.73674763 136.62731053 832.4375 133.125 C822.33434928 127.60787847 810.555406 132.39296435 800.27734375 135.37109375 Z M1100.43225098 356.96014404 C1094.6285023 365.22602167 1092.47986474 374.25634632 1090.46875 383.984375 C1090.13734448 385.5362142 1089.80465188 387.08777896 1089.4708252 388.63909912 C1088.72207603 392.12925408 1087.98166711 395.62105881 1087.24609375 399.11401367 C1085.89111223 405.53498886 1084.500527 411.94810899 1083.109375 418.36132812 C1080.70133071 429.47434077 1078.31976738 440.59278959 1075.95617676 451.71533966 C1074.58480428 458.16705306 1073.20749233 464.61738214 1071.81445312 471.06445312 C1070.44217866 477.41828935 1069.08598548 483.77536505 1067.74085999 490.13500214 C1067.23294597 492.52332021 1066.71953679 494.9104774 1066.20018005 497.29633331 C1060.04477048 523.46022828 1060.04477048 523.46022828 1067.5078125 548.42578125 C1077.31658165 561.99838042 1090.31984269 565.94315381 1106.10693359 569.19213867 C1107.5010801 569.48588894 1108.8950576 569.78044222 1110.28887939 570.07572937 C1114.04297586 570.86872913 1117.79930213 571.65064405 1121.55614424 572.43051696 C1125.4981014 573.25087285 1129.43784619 574.08172012 1133.37783813 574.91145325 C1140.82984546 576.47917617 1148.28372231 578.03780951 1155.73835146 579.59301215 C1165.04722317 581.53548982 1174.35371797 583.48926241 1183.66015625 585.44335938 C1186.9188967 586.12755308 1190.1776532 586.81167023 1193.43643188 587.49568176 C1194.62009462 587.74413336 1194.62009462 587.74413336 1195.82766974 587.99760419 C1201.2689702 589.13939775 1206.7109249 590.2780365 1212.15316772 591.41532898 C1214.30928559 591.86618984 1216.46539306 592.31710037 1218.62149811 592.76802254 C1220.61484768 593.18463636 1222.60836969 593.60041769 1224.60189819 594.01617432 C1226.38068359 594.38820229 1226.38068359 594.38820229 1228.19540405 594.76774597 C1229.22588552 594.98285922 1230.256367 595.19797247 1231.31807518 595.4196043 C1232.92868569 595.76815673 1234.53468319 596.14124465 1236.12792397 596.5621233 C1245.55947708 598.76815408 1256.62607187 597.79570707 1265 593 C1265.78890625 592.55269531 1266.5778125 592.10539062 1267.390625 591.64453125 C1277.27619063 585.53970347 1283.48560604 576.62277343 1286.35180664 565.32348633 C1286.71851462 563.66268147 1287.07050671 561.99858029 1287.41015625 560.33203125 C1287.61529343 559.38333664 1287.8204306 558.43464203 1288.03178406 557.4571991 C1288.72242042 554.24506125 1289.39282112 551.02906786 1290.0625 547.8125 C1290.55602019 545.48482528 1291.05052353 543.15735883 1291.54589844 540.83007812 C1292.38108075 536.89802943 1293.21418939 532.9656011 1294.0397644 529.03152466 C1296.05381079 519.43706849 1298.10513501 509.85114025 1300.17693615 500.26898861 C1302.02072468 491.74029912 1303.85277396 483.20914014 1305.67729664 474.67630863 C1306.82363623 469.3164677 1307.97450845 463.95769713 1309.13650513 458.60122681 C1310.24775906 453.47587069 1311.34358408 448.34743274 1312.42872047 443.21648598 C1312.83425368 441.31135918 1313.24499775 439.40733257 1313.66147423 437.5045681 C1317.41426368 420.33217159 1319.87274505 405.15106915 1310.375 389.3125 C1301.4944872 376.89313623 1288.65363772 373.2881613 1274.36352539 370.34619141 C1273.25597397 370.11140579 1272.14842255 369.87662018 1271.00730896 369.63471985 C1267.37230808 368.86609133 1263.73504734 368.10879139 1260.09765625 367.3515625 C1257.53471581 366.81186139 1254.97192848 366.27143268 1252.4092865 365.73031616 C1246.35279521 364.4526822 1240.29464221 363.18312176 1234.23581642 361.91661012 C1226.7788282 360.35744729 1219.32396635 358.78821371 1211.86914062 357.21875 C1204.20706835 355.60590048 1196.54482219 353.99391004 1188.88111877 352.38882446 C1187.71009833 352.14340094 1186.53907789 351.89797741 1185.33257198 351.64511681 C1183.02213469 351.16106343 1180.71157275 350.67760453 1178.40087986 350.19477272 C1172.36801358 348.93078754 1166.34164804 347.64174257 1160.32125854 346.31951904 C1159.0581079 346.0436112 1157.79495726 345.76770336 1156.49352932 345.48343468 C1154.08614962 344.95642878 1151.6798027 344.42467341 1149.27472782 343.88724709 C1131.24694571 339.94925639 1112.60872235 341.15780261 1100.43225098 356.96014404 Z M918.01977539 472.06591797 C917.22181046 472.2880899 916.42384552 472.51026184 915.60169983 472.73916626 C912.93194678 473.48410547 910.26486595 474.2381972 907.59765625 474.9921875 C905.68981852 475.5263233 903.78180948 476.05984749 901.87364197 476.59280396 C897.76474874 477.74166621 893.65698406 478.89445099 889.55004883 480.05029297 C882.98375796 481.89813709 876.41500391 483.73710783 869.84570312 485.57421875 C867.598173 486.20281251 865.35064494 486.83141363 863.1031189 487.46002197 C861.98172894 487.77364937 860.86033897 488.08727676 859.7049675 488.41040802 C856.25956401 489.37434758 852.81439918 490.33913588 849.36929321 491.30413818 C828.8436706 497.05236655 808.30157357 502.74005047 787.75460815 508.41143799 C778.03362286 511.09467837 768.3135343 513.78116273 758.59375 516.46875 C757.62565336 516.73642811 756.65755672 517.00410622 755.66012383 517.27989578 C732.59862268 523.65740436 709.5490874 530.0778009 686.5 536.5 C653.70256972 545.63839335 620.89525249 554.74013526 588.07806396 563.80731201 C557.20889947 572.33648299 526.3506325 580.90404561 495.5 589.5 C463.67596828 598.36717396 431.84318297 607.20184818 400 616 C367.92789846 624.86150654 335.86582162 633.75829989 303.8125 642.6875 C273.90130581 651.01984175 243.98641506 659.33845119 214.0625 667.625 C207.27341001 669.50510908 200.48433623 671.38527666 193.6953125 673.265625 C192.85352322 673.49877096 192.01173393 673.73191692 191.14443588 673.97212791 C171.18424496 679.50069873 151.2279063 685.04312663 131.27209091 690.58746719 C128.43771891 691.37493918 125.60333643 692.16237342 122.76895142 692.94979858 C104.84191517 697.93018489 86.91515941 702.91157987 68.98884392 707.89455986 C58.74269033 710.74266621 48.49639808 713.59027337 38.25 716.4375 C37.32473511 716.69461761 36.39947021 716.95173523 35.44616699 717.21664429 C4.80365206 725.73152658 -25.84729149 734.21565381 -56.50178528 742.68729782 C-88.52013947 751.53606566 -120.52649416 760.42724853 -152.52620697 769.3431778 C-188.17552524 779.27579322 -223.83839098 789.15869873 -259.50830078 799.01708984 C-263.3037147 800.06606713 -267.09912409 801.11506076 -270.89453125 802.1640625 C-272.26781334 802.54360392 -272.26781334 802.54360392 -273.6688385 802.93081284 C-297.78591102 809.59647891 -321.89471802 816.29182304 -346 823 C-340.63751194 844.2060445 -334.799676 865.26784616 -328.89191437 886.32711792 C-327.57338434 891.02996816 -326.25813935 895.73373667 -324.94287109 900.4375 C-324.67430613 901.39794661 -324.40574116 902.35839321 -324.12903786 903.34794426 C-323.58110074 905.30753925 -323.0331787 907.26713845 -322.48527145 909.22674179 C-321.65239631 912.20518743 -320.81922227 915.18354932 -319.98599243 918.16189575 C-314.43490565 938.0065638 -308.91233219 957.85912184 -303.39862061 977.71420288 C-302.62081779 980.51506007 -301.8428872 983.31588174 -301.06494141 986.11669922 C-292.79290042 1015.90027935 -284.55150938 1045.69229503 -276.31692123 1075.48624802 C-266.42676253 1111.26944647 -256.49548139 1147.04109758 -246.52587891 1182.80224609 C-245.69467073 1185.7839497 -244.86346834 1188.76565492 -244.03227997 1191.74736404 C-243.48951198 1193.69439216 -242.94671134 1195.64141118 -242.40387726 1197.58842087 C-239.0060916 1209.77674088 -235.62244216 1221.96883796 -232.25784492 1234.16636086 C-231.0581114 1238.5135807 -229.85537869 1242.85997185 -228.65259075 1247.20634747 C-227.74649772 1250.48195271 -226.84344735 1253.75832758 -225.94454956 1257.03591919 C-224.98928335 1260.5189579 -224.02674826 1263.99990797 -223.0625 1267.48046875 C-222.79196304 1268.47543365 -222.52142609 1269.47039856 -222.24269104 1270.49551392 C-220.02428049 1278.45559209 -217.9385212 1284.00426473 -211 1289 C-205.12686267 1292.24568116 -198.55152044 1291.3997249 -192.29355717 1289.6913662 C-191.62192256 1289.49681154 -190.95028795 1289.30225689 -190.25830078 1289.10180664 C-189.52185805 1288.89756388 -188.78541533 1288.69332111 -188.02665615 1288.48288918 C-185.58003123 1287.80172304 -183.13781343 1287.10595198 -180.6953125 1286.41015625 C-178.93742827 1285.91767954 -177.17927782 1285.42615224 -175.42088318 1284.9355011 C-171.6402193 1283.87848229 -167.86144401 1282.8150416 -164.08401489 1281.746521 C-158.04055423 1280.03709078 -151.99315483 1278.34190547 -145.94506836 1276.64892578 C-138.56377955 1274.58181064 -131.18341564 1272.5114545 -123.80423641 1270.43682098 C-110.8535589 1266.79612059 -97.89615727 1263.1801699 -84.93359375 1259.58203125 C-84.00515656 1259.32431253 -83.07671936 1259.06659382 -82.12014771 1258.80106544 C-77.46105887 1257.50796095 -72.80182561 1256.21537783 -68.14251709 1254.92306519 C-62.52056306 1253.3636146 -56.89914099 1251.80225256 -51.27783203 1250.24047852 C-25.50101506 1243.07916318 0.27972356 1235.93205592 26.06197357 1228.79032898 C53.89852351 1221.07948672 81.73180409 1213.35694454 109.5625 1205.625 C111.4513751 1205.10024944 113.34025043 1204.57549968 115.22912598 1204.05075073 C133.15680517 1199.07018881 151.08419845 1194.08859862 169.01115608 1189.10544014 C179.25730967 1186.25733379 189.50360192 1183.40972663 199.75 1180.5625 C200.67526489 1180.30538239 201.60052979 1180.04826477 202.55383301 1179.78335571 C233.19634794 1171.26847342 263.84729149 1162.78434619 294.50178528 1154.31270218 C326.52654103 1145.46216517 358.53931117 1136.56926145 390.54539871 1127.65146637 C422.32775564 1118.79615083 454.12049761 1109.97921956 485.92193604 1101.19268799 C516.79110053 1092.66351701 547.6493675 1084.09595439 578.5 1075.5 C610.32403172 1066.63282604 642.15681703 1057.79815182 674 1049 C706.07210154 1040.13849346 738.13417838 1031.24170011 770.1875 1022.3125 C800.09869407 1013.98015828 830.01356607 1005.66148049 859.9375 997.375 C866.67971411 995.50790858 873.42191651 993.64077488 880.1640625 991.7734375 C881.00147854 991.54150633 881.83889458 991.30957516 882.70168686 991.07061577 C896.5604107 987.23206869 910.41735662 983.3871383 924.2734375 979.5390625 C925.73782603 979.13241206 925.73782603 979.13241206 927.23179817 978.71754646 C937.90294499 975.7541688 948.5735097 972.7887161 959.24291992 969.8190918 C962.93402941 968.79196572 966.62519607 967.76504539 970.31640625 966.73828125 C971.2110301 966.48940596 972.10565395 966.24053066 973.02738762 965.98411369 C984.15696569 962.88895915 995.29269197 959.8178682 1006.4387722 956.78268051 C1010.88591528 955.57059858 1015.33123072 954.35182376 1019.77694702 953.13452148 C1023.13411525 952.2190991 1026.49427136 951.31533894 1029.85473633 950.41210938 C1031.82519831 949.87300131 1033.79550617 949.33332947 1035.765625 948.79296875 C1037.06178993 948.45098701 1037.06178993 948.45098701 1038.38414001 948.10209656 C1046.20212755 945.93217153 1051.13830286 942.52856473 1056 936 C1059.30395763 926.0881271 1055.40232485 915.97919686 1052.62890625 906.375 C1052.15873261 904.71023257 1051.68977155 903.04512228 1051.22192383 901.37969971 C1050.21357333 897.79936052 1049.19725464 894.22141855 1048.17459106 890.6451416 C1046.53219807 884.90090921 1044.90801203 879.15162652 1043.28686523 873.40136719 C1041.58425911 867.36502503 1039.88063208 861.32898342 1038.17103577 855.2946167 C1032.74870113 836.15326515 1027.41767429 816.98708821 1022.10498047 797.81506348 C1019.76268206 789.36284745 1017.41535666 780.91202685 1015.06869507 772.46102142 C1014.28175535 769.62682006 1013.49497631 766.79257414 1012.70825195 763.95831299 C1009.32704036 751.77731558 1005.94317635 739.5970576 1002.55744934 727.41731453 C1000.22549435 719.02829452 997.89393611 710.63916423 995.5625 702.25 C995.30546295 701.32512409 995.0484259 700.40024818 994.78359985 699.44734573 C988.69557577 677.54046432 982.61731811 655.63092825 976.5625 633.71484375 C976.16077796 632.26084167 976.16077796 632.26084167 975.75094032 630.77746582 C974.3953163 625.87084459 973.03977503 620.96420049 971.68423462 616.05755615 C971.1436572 614.10087055 970.603079 612.14418517 970.0625 610.1875 C969.79741512 609.22795662 969.53233025 608.26841324 969.25921249 607.27979279 C956.60882094 561.49116051 943.81778332 515.74201619 931 470 C926.41479277 469.70416213 922.38306638 470.82043152 918.01977539 472.06591797 Z " fill="#323367" transform="translate(519,446)"/>
<path d="M0 0 C2.13978628 0.44894038 4.27980868 0.89675656 6.42004395 1.34355164 C12.2142837 2.55657815 18.00502104 3.78561451 23.79523849 5.01767731 C29.87007291 6.30741827 35.94805345 7.58216545 42.02563477 8.85888672 C55.99760739 11.7973844 69.96484856 14.75793943 83.93127143 17.72266996 C91.35697361 19.2988812 98.7831687 20.87276482 106.20939362 22.44651103 C110.06704234 23.26401612 113.92467477 24.08159803 117.78230286 24.89920044 C118.55202272 25.06233817 119.32174258 25.2254759 120.11478728 25.39355719 C125.59532553 26.55517235 131.0757833 27.71716668 136.55619812 28.87936401 C137.33249984 29.04398915 138.10880156 29.20861429 138.90862757 29.37822807 C139.68418055 29.54269467 140.45973353 29.70716127 141.25878811 29.87661171 C160.28370659 33.91109634 179.30949851 37.94144237 198.3359375 41.96875 C199.02362638 42.11431343 199.71131526 42.25987687 200.4198432 42.40985131 C207.36810773 43.88058362 214.31639386 45.35121387 221.26469719 46.82176286 C229.69122341 48.60516548 238.11769412 50.38883018 246.5441401 52.17261183 C290.83189697 61.5477869 335.12090216 70.91705714 379.41015625 80.28515625 C427.93404828 90.54896943 476.45745479 100.8150693 524.97967196 111.08679771 C527.09914776 111.53547199 529.21862405 111.984144 531.33810043 112.43281555 C553.05921527 117.03096015 574.7802698 121.62938964 596.50131416 126.22786713 C617.53506125 130.68083873 638.56882621 135.13372592 659.60264254 139.58637047 C661.72124928 140.03485841 663.83985554 140.48334861 665.95846176 140.93183899 C713.77474393 151.05410032 761.59222903 161.17066933 809.41015625 171.28515625 C864.22898662 182.88047991 919.04708049 194.47927397 973.86376953 206.0847168 C978.74167494 207.11743146 983.61958124 208.15014196 988.49748802 209.18285012 C990.58356667 209.62449807 992.66964436 210.06615048 994.75572205 210.50780296 C1010.65381361 213.87363465 1026.55207914 217.23864248 1042.45068359 220.60205078 C1043.58141839 220.84126279 1043.58141839 220.84126279 1044.73499632 221.08530736 C1051.59860482 222.53732724 1058.46222192 223.98930644 1065.32585144 225.44122696 C1081.59544207 228.88289182 1097.86480178 232.32563929 1114.13330078 235.77246094 C1115.18438577 235.99514865 1115.18438577 235.99514865 1116.25670481 236.2223351 C1122.45897611 237.5363776 1128.66124138 238.85044853 1134.8634491 240.16479111 C1150.03993315 243.3808462 1165.217851 246.58989005 1180.39923096 249.78276062 C1186.69860453 251.10780107 1192.99694351 252.4377204 1199.29485321 253.76970005 C1203.19684271 254.59466983 1207.09931174 255.41713928 1211.00335693 256.23233032 C1248.81729613 264.13137224 1248.81729613 264.13137224 1261.22265625 271.03515625 C1261.927854 271.41937744 1262.63305176 271.80359863 1263.35961914 272.19946289 C1269.64301902 275.72566296 1275.12097012 279.88807067 1280.41015625 284.78515625 C1281.24804688 285.53152344 1282.0859375 286.27789062 1282.94921875 287.046875 C1299.268536 302.33044611 1311.34081946 325.77577138 1312.54522705 348.31259537 C1313.01539071 364.60046012 1311.66841509 380.08271211 1308.97265625 396.12109375 C1308.60885298 398.38045451 1308.24692382 400.64011772 1307.88671875 402.90005493 C1306.94086316 408.80440205 1305.97136693 414.7046067 1304.99591064 420.60412598 C1304.03596183 426.4318365 1303.0964316 432.26282342 1302.15625 438.09375 C1301.03763099 445.02525682 1299.9175579 451.95650118 1298.78759766 458.88616943 C1294.83310232 483.16085258 1291.10706836 507.47010146 1287.41015625 531.78515625 C1281.25346445 531.18187128 1275.31115092 530.25449861 1269.26879883 528.94458008 C1268.39013908 528.7578432 1267.51147934 528.57110632 1266.60619354 528.37871075 C1263.67146818 527.75396428 1260.73810876 527.12302644 1257.8046875 526.4921875 C1255.67743124 526.0382 1253.55008376 525.58463974 1251.4226532 525.13146973 C1246.80501342 524.14707251 1242.18794367 523.16005813 1237.57128906 522.17105103 C1230.07195666 520.56469054 1222.57128987 518.96462635 1215.0703125 517.3659668 C1213.78039083 517.09104558 1212.49046917 516.81612436 1211.16145897 516.5328722 C1209.17718451 516.10997555 1207.19290687 515.68709384 1205.20862138 515.26424891 C1201.12799549 514.39465922 1197.04746505 513.52462321 1192.96700275 512.65426618 C1172.3627732 508.25957876 1151.75357838 503.88873562 1131.140625 499.53515625 C1130.42398493 499.38379605 1129.70734486 499.23243585 1128.96898842 499.07648897 C1120.17928109 497.22011851 1111.38937643 495.36468335 1102.59940934 493.5095433 C1089.03129136 490.64590422 1075.46359582 487.78026393 1061.89585686 484.91482973 C1059.61666555 484.43348352 1057.33746991 483.95215782 1055.05827332 483.47083664 C1022.27980379 476.54859361 989.50413611 469.61313496 956.72924757 462.67395926 C954.59474941 462.22204081 952.46024928 461.77013169 950.32574844 461.31822586 C935.38298462 458.15461828 920.44026998 454.99077844 905.4975971 451.82674134 C878.10921278 446.02738735 850.72056699 440.22926853 823.33185196 434.43147659 C820.50946047 433.83401698 817.68707026 433.23655132 814.86468124 432.63908005 C767.04744704 422.51665683 719.22902751 412.39984286 671.41015625 402.28515625 C622.88626422 392.02134307 574.36285771 381.7552432 525.84064054 371.48351479 C523.72116474 371.03484051 521.60168845 370.5861685 519.48221207 370.13749695 C497.76109723 365.53935235 476.0400427 360.94092286 454.31899834 356.34244537 C433.28525125 351.88947377 412.25148629 347.43658658 391.21766996 342.98394203 C389.09906322 342.53545409 386.98045696 342.08696389 384.86185074 341.63847351 C337.04556857 331.51621218 289.22808347 321.39964317 241.41015625 311.28515625 C186.61549873 299.69494565 131.8215907 288.10120341 77.02905273 276.50097656 C75.64059484 276.20702472 74.2521369 275.91307305 72.86367893 275.61912155 C71.83265081 275.40084178 71.83265081 275.40084178 70.78079385 275.17815232 C68.00251727 274.58996168 65.22424044 274.00177229 62.44596362 273.4135828 C60.36585666 272.97320149 58.28575061 272.53281591 56.20564461 272.09243011 C36.13867219 267.84401178 16.07132705 263.59735731 -3.99624223 259.3517592 C-9.50217788 258.18688659 -15.00809232 257.02191376 -20.51399231 255.85687256 C-21.28569387 255.69358168 -22.05739544 255.53029081 -22.8524819 255.36205173 C-26.71774952 254.54416326 -30.58301442 253.72626195 -34.44827747 252.9083519 C-41.87230561 251.33740759 -49.29637517 249.76665953 -56.72055054 248.19641113 C-109.34889286 237.06506132 -109.34889286 237.06506132 -132.55235481 232.10884857 C-134.3688595 231.7210075 -136.18548024 231.33370945 -138.00222588 230.9469986 C-140.43812963 230.42827653 -142.87355417 229.90736623 -145.30883789 229.38574219 C-146.01310724 229.23617317 -146.71737659 229.08660416 -147.44298744 228.93250275 C-150.22241848 228.33487348 -152.8895126 227.68526663 -155.58984375 226.78515625 C-154.98784234 218.02907738 -153.88505234 209.41916985 -152.53613281 200.74926758 C-152.32702936 199.3859849 -152.11825834 198.02265119 -151.90979004 196.65927124 C-151.34761538 192.99094589 -150.77999133 189.32348551 -150.21066761 185.65626359 C-149.85351676 183.35460791 -149.49742263 181.05279111 -149.14165497 178.75092125 C-147.89565795 170.69055772 -146.6446665 162.63098509 -145.38964844 154.57202148 C-144.22750513 147.10843551 -143.07719454 139.64308968 -141.93224168 132.17684919 C-140.9424931 125.72670238 -139.9437387 119.2779892 -138.9383409 112.83026332 C-138.34082129 108.99712983 -137.74684035 105.16353605 -137.16223907 101.32840919 C-131.10509048 61.64778339 -131.10509048 61.64778339 -123.21484375 47.78515625 C-122.82619141 47.07931396 -122.43753906 46.37347168 -122.03710938 45.64624023 C-119.01715297 40.27639574 -115.66632275 35.41347302 -111.58984375 30.78515625 C-110.93757812 29.99109375 -110.2853125 29.19703125 -109.61328125 28.37890625 C-81.4182811 -4.83993029 -40.16628555 -8.61494869 0 0 Z " fill="#323367" transform="translate(728.58984375,4.21484375)"/>
<path d="M0 0 C14.22176023 10.18379617 17.56248223 25.98226912 21.8984375 41.98828125 C22.433148 43.93467708 22.96871014 45.88083913 23.50506592 47.82678223 C24.92923224 53.00253019 26.3423755 58.1812213 27.75260162 63.36078262 C30.08255552 71.9117544 32.42793232 80.45852359 34.76960373 89.00629234 C35.63884494 92.18099873 36.50667985 95.35608731 37.37442017 98.53120422 C40.42434665 109.67906052 43.5197594 120.81108376 46.73031235 131.91378212 C47.63560199 135.04754009 48.5330516 138.18354684 49.43212891 141.3190918 C50.38346351 144.63490138 51.34095292 147.94796914 52.32391357 151.25454712 C56.89307075 166.6313008 61.39896482 183.19513278 53.25 198.25 C47.01356486 208.79733501 39.89121143 215.02747877 28.13110352 218.6015625 C27.43790544 218.8128479 26.74470736 219.0241333 26.03050327 219.24182129 C17.27810532 221.8851614 8.46468473 224.31604316 -0.34765625 226.75 C-2.21675756 227.2683297 -4.08579493 227.78688999 -5.95477295 228.30566406 C-10.89280127 229.6756236 -15.83170124 231.04241353 -20.7708168 232.40844727 C-25.86355191 233.81747144 -30.9555378 235.22919811 -36.04760742 236.640625 C-44.02154445 238.85050705 -51.9959543 241.05867439 -59.97070312 243.265625 C-68.96629671 245.75520162 -77.96016028 248.25094693 -86.953125 250.75 C-90.18587927 251.6475302 -93.41870153 252.54481471 -96.65158081 253.44189453 C-98.57630209 253.97621984 -100.50088545 254.51104219 -102.42532349 255.04638672 C-104.99792713 255.76178335 -107.57113056 256.47497679 -110.14453125 257.1875 C-110.86098816 257.38730469 -111.57744507 257.58710937 -112.31561279 257.79296875 C-125.61164719 261.46434439 -137.72158891 261.44724016 -150 254.5 C-165.53829627 244.41977615 -169.15736833 228.57986355 -173.75 211.65234375 C-174.30821848 209.63107529 -174.86753896 207.6101109 -175.42788696 205.58943176 C-176.91129872 200.2283416 -178.37959861 194.86322536 -179.84473419 189.49711609 C-181.35566781 183.97320236 -182.88041944 178.4531062 -184.40380859 172.93261719 C-187.07223715 163.25540927 -189.72930455 153.57513186 -192.38072395 143.89325142 C-194.59950691 135.79330066 -196.83076342 127.69685128 -199.06897736 119.60225105 C-201.56731324 110.56525727 -204.06307702 101.52752053 -206.5390625 92.484375 C-206.75438629 91.70262405 -206.96971008 90.92087311 -207.19155884 90.11543274 C-210.88261497 76.59008176 -210.78724978 65.08168457 -204.0859375 52.53125 C-193.75157609 34.88427029 -171.5991548 31.80292466 -153.390625 26.78515625 C-151.53161371 26.2696567 -149.67269876 25.7538096 -147.81387329 25.23764038 C-141.87738522 23.59059299 -135.93879203 21.9512169 -130 20.3125 C-127.96305941 19.75006202 -125.92613319 19.18757204 -123.88922119 18.62503052 C-122.87755323 18.34564794 -121.86588528 18.06626535 -120.82356071 17.77841663 C-118.78249623 17.2147365 -116.74143609 16.65104063 -114.70038033 16.08732891 C-113.6939945 15.80938394 -112.68760868 15.53143896 -111.65072632 15.24507141 C-110.64837322 14.96823328 -109.64602013 14.69139515 -108.61329269 14.40616798 C-106.59574598 13.84912153 -104.57812972 13.29232686 -102.56044388 12.73578453 C-91.62975883 9.7207338 -80.70491447 6.68898295 -69.80358887 3.56929016 C-65.11787243 2.22861748 -60.42845562 0.90119742 -55.73864746 -0.42507935 C-53.69527551 -1.00746078 -51.65391991 -1.59697381 -49.61486816 -2.19430542 C-32.07859841 -7.3283936 -16.43225887 -10.1079105 0 0 Z " fill="#323367" transform="translate(506.75,1377.75)"/>
</svg>
